<svg id="Layer_1" data-name="Layer 1" xmlns="http://www.w3.org/2000/svg" viewBox="0 0 240 24"><defs><style>.cls-1,.cls-10,.cls-11,.cls-12,.cls-13,.cls-14,.cls-15,.cls-16,.cls-17,.cls-18,.cls-19,.cls-2,.cls-20,.cls-3,.cls-4,.cls-5,.cls-6,.cls-7,.cls-8,.cls-9{fill:#b3b3b3;}.cls-2,.cls-22{opacity:0.95;}.cls-23,.cls-3{opacity:0.9;}.cls-24,.cls-4{opacity:0.85;}.cls-25,.cls-5{opacity:0.8;}.cls-26,.cls-6{opacity:0.75;}.cls-27,.cls-7{opacity:0.7;}.cls-28,.cls-8{opacity:0.65;}.cls-29,.cls-9{opacity:0.6;}.cls-10,.cls-30{opacity:0.55;}.cls-11,.cls-31{opacity:0.5;}.cls-12,.cls-32{opacity:0.45;}.cls-13,.cls-33{opacity:0.4;}.cls-14,.cls-34{opacity:0.35;}.cls-15,.cls-35{opacity:0.3;}.cls-16,.cls-36{opacity:0.25;}.cls-17,.cls-37{opacity:0.2;}.cls-18,.cls-38{opacity:0.15;}.cls-19,.cls-39{opacity:0.1;}.cls-20,.cls-40{opacity:0.05;}.cls-21,.cls-22,.cls-23,.cls-24,.cls-25,.cls-26,.cls-27,.cls-28,.cls-29,.cls-30,.cls-31,.cls-32,.cls-33,.cls-34,.cls-35,.cls-36,.cls-37,.cls-38,.cls-39,.cls-40{fill:#fff;}</style></defs><title>transparency-grid</title><rect class="cls-1" width="12" height="12"/><rect class="cls-2" x="12" y="12" width="12" height="12"/><rect class="cls-3" x="24" width="12" height="12"/><rect class="cls-4" x="36" y="12" width="12" height="12"/><rect class="cls-5" x="48" width="12" height="12"/><rect class="cls-6" x="60" y="12" width="12" height="12"/><rect class="cls-7" x="72" width="12" height="12"/><rect class="cls-8" x="84" y="12" width="12" height="12"/><rect class="cls-9" x="96" width="12" height="12"/><rect class="cls-10" x="108" y="12" width="12" height="12"/><rect class="cls-11" x="120" width="12" height="12"/><rect class="cls-12" x="132" y="12" width="12" height="12"/><rect class="cls-13" x="144" width="12" height="12"/><rect class="cls-14" x="156" y="12" width="12" height="12"/><rect class="cls-15" x="168" width="12" height="12"/><rect class="cls-16" x="180" y="12" width="12" height="12"/><rect class="cls-17" x="192" width="12" height="12"/><rect class="cls-18" x="204" y="12" width="12" height="12"/><rect class="cls-19" x="216" width="12" height="12"/><rect class="cls-20" x="228" y="12" width="12" height="12"/><rect class="cls-21" y="12" width="12" height="12"/><rect class="cls-22" x="12" width="12" height="12"/><rect class="cls-23" x="24" y="12" width="12" height="12"/><rect class="cls-24" x="36" width="12" height="12"/><rect class="cls-25" x="48" y="12" width="12" height="12"/><rect class="cls-26" x="60" width="12" height="12"/><rect class="cls-27" x="72" y="12" width="12" height="12"/><rect class="cls-28" x="84" width="12" height="12"/><rect class="cls-29" x="96" y="12" width="12" height="12"/><rect class="cls-30" x="108" width="12" height="12"/><rect class="cls-31" x="120" y="12" width="12" height="12"/><rect class="cls-32" x="132" width="12" height="12"/><rect class="cls-33" x="144" y="12" width="12" height="12"/><rect class="cls-34" x="156" width="12" height="12"/><rect class="cls-35" x="168" y="12" width="12" height="12"/><rect class="cls-36" x="180" width="12" height="12"/><rect class="cls-37" x="192" y="12" width="12" height="12"/><rect class="cls-38" x="204" width="12" height="12"/><rect class="cls-39" x="216" y="12" width="12" height="12"/><rect class="cls-40" x="228" width="12" height="12"/></svg>